<?xml version="1.0" encoding="iso-8859-1"?>
<!-- Generator: Adobe Illustrator 19.0.0, SVG Export Plug-In . SVG Version: 6.00 Build 0)  -->
<svg version="1.1" id="Layer_1" xmlns="http://www.w3.org/2000/svg" xmlns:xlink="http://www.w3.org/1999/xlink" x="0px" y="0px"
	 viewBox="0 0 370.663 370.663" style="enable-background:new 0 0 370.663 370.663;" xml:space="preserve">
<g id="XMLID_441_">
	<g>
		<g>
			<path fill="#288EF8" d="M282.148,228.538c0-53.385-43.432-96.816-96.816-96.816c-53.384,0-96.816,43.432-96.816,96.816
				c0,22.03,7.22,42.777,20.88,60c17.113,21.577,66.666,72.59,68.767,74.75l7.17,7.375l7.17-7.374
				c2.102-2.162,51.67-53.187,68.784-74.77C274.934,271.309,282.148,250.568,282.148,228.538z M185.332,341.921
				c-14.617-15.201-47.543-49.769-60.267-65.811c-10.827-13.651-16.55-30.102-16.55-47.573c0-42.357,34.46-76.816,76.816-76.816
				c42.356,0,76.816,34.459,76.816,76.816c0,17.472-5.717,33.916-16.532,47.555C232.893,292.136,199.955,326.716,185.332,341.921z"
				/>
			<path fill="#288EF8" d="M185.332,168.658c-32.447,0-58.846,26.398-58.846,58.846s26.398,58.846,58.846,58.846s58.846-26.398,58.846-58.846
				S217.779,168.658,185.332,168.658z M185.332,266.351c-21.42,0-38.846-17.426-38.846-38.846c0-21.42,17.426-38.846,38.846-38.846
				c21.42,0,38.846,17.426,38.846,38.846C224.178,248.925,206.751,266.351,185.332,266.351z"/>
			<polygon fill="#288EF8" points="302.276,88.568 302.276,44.499 282.276,44.499 282.276,73.421 185.332,0 4.294,137.109 16.369,153.053 
				31.214,141.809 31.214,336.443 117.276,336.443 117.276,316.443 51.214,316.443 51.214,126.662 185.332,25.089 319.449,126.662 
				319.449,316.443 253.387,316.443 253.387,336.443 339.449,336.443 339.449,141.809 354.294,153.053 366.369,137.109 			"/>
		</g>
	</g>
</g>
<g>
</g>
<g>
</g>
<g>
</g>
<g>
</g>
<g>
</g>
<g>
</g>
<g>
</g>
<g>
</g>
<g>
</g>
<g>
</g>
<g>
</g>
<g>
</g>
<g>
</g>
<g>
</g>
<g>
</g>
</svg>
